<svg version="1.1" width="13.184" height="16" viewBox="0 0 13.184 16" xmlns="http://www.w3.org/2000/svg" xmlns:xlink="http://www.w3.org/1999/xlink" overflow="hidden"><path d=" M 6.58 9.47 C 8.11866 9.47276 9.36824 8.22767 9.371 6.68901 C 9.37101 6.68567 9.37101 6.68234 9.371 6.679 C 9.38196 5.11657 8.14185 3.83203 6.58 3.788 C 5.04134 3.78468 3.79132 5.02933 3.788 6.56799 C 3.78799 6.57166 3.78799 6.57533 3.788 6.579 C 3.81284 8.12726 5.03355 9.39125 6.58 9.47 Z M 1.894 1.894 C 4.48173 -0.69373 8.67727 -0.69373 11.265 1.894 C 13.8527 4.48173 13.8527 8.67727 11.265 11.265 L 6.58 15.95 L 1.894 11.265 C -0.598338 8.63849 -0.598338 4.52051 1.894 1.894 Z" id="Caminho_114" fill="#FFFFFF" fill-rule="evenodd" transform="matrix(1,0,0,1,-0.025,0.05)"/></svg>