<svg version="1.1" width="16" height="16" viewBox="0 0 16 16" xmlns="http://www.w3.org/2000/svg" xmlns:xlink="http://www.w3.org/1999/xlink" overflow="hidden"><path d=" M 8 1.422 C 9.06747 1.38196 10.1364 1.41169 11.2 1.511 C 11.7159 1.50467 12.2285 1.59524 12.711 1.778 C 13.3767 2.08825 13.9117 2.62328 14.222 3.289 C 14.4048 3.77152 14.4953 4.28406 14.489 4.8 C 14.489 5.6 14.578 5.867 14.578 8 C 14.618 9.06747 14.5883 10.1364 14.489 11.2 C 14.4953 11.7159 14.4048 12.2285 14.222 12.711 C 13.9117 13.3767 13.3767 13.9117 12.711 14.222 C 12.2285 14.4048 11.7159 14.4953 11.2 14.489 C 10.4 14.489 10.133 14.578 8 14.578 C 6.93253 14.618 5.86359 14.5883 4.8 14.489 C 4.28406 14.4953 3.77152 14.4048 3.289 14.222 C 2.62328 13.9117 2.08825 13.3767 1.778 12.711 C 1.59524 12.2285 1.50467 11.7159 1.511 11.2 C 1.511 10.4 1.422 10.133 1.422 8 C 1.38196 6.93253 1.41169 5.86359 1.511 4.8 C 1.50467 4.28406 1.59524 3.77152 1.778 3.289 C 1.93308 2.95934 2.14345 2.65867 2.4 2.4 C 2.60834 2.089 2.92544 1.86714 3.289 1.778 C 3.77152 1.59524 4.28406 1.50467 4.8 1.511 C 5.86359 1.41169 6.93253 1.38196 8 1.422 M 8 0 C 6.90288 -0.0391012 5.8044 -0.00937619 4.711 0.089 C 4.04316 0.0873946 3.38064 0.207699 2.756 0.444 C 2.21662 0.619984 1.72844 0.925179 1.334 1.333 C 0.925678 1.72762 0.620125 2.21616 0.444 2.756 C 0.165165 3.36808 0.0431604 4.03997 0.089 4.711 C -0.00937618 5.8044 -0.0391012 6.90288 9.0003e-09 8 C -0.0391012 9.09712 -0.00937618 10.1956 0.089 11.289 C 0.0875924 11.9572 0.208238 12.6201 0.445 13.245 C 0.620984 13.7844 0.926179 14.2726 1.334 14.667 C 1.72844 15.0748 2.21662 15.38 2.756 15.556 C 3.38089 15.7928 4.04376 15.9134 4.712 15.912 C 5.80508 16.01 6.90324 16.0394 8 16 C 9.09712 16.0391 10.1956 16.0094 11.289 15.911 C 11.9572 15.9124 12.6201 15.7918 13.245 15.555 C 14.3299 15.1812 15.1822 14.3289 15.556 13.244 C 15.7928 12.6191 15.9134 11.9562 15.912 11.288 C 15.911 10.4 16 10.133 16 8 C 16.0391 6.90288 16.0094 5.8044 15.911 4.711 C 15.9124 4.04276 15.7918 3.37989 15.555 2.755 C 15.379 2.21562 15.0738 1.72744 14.666 1.333 C 14.2716 0.925179 13.7834 0.619984 13.244 0.444 C 12.6194 0.207699 11.9568 0.0873945 11.289 0.0889998 C 10.1956 -0.00937636 9.09712 -0.0391013 8 -1.69814e-07 M 8 3.911 C 5.77846 3.87425 3.94775 5.64536 3.911 7.8669 C 3.91027 7.91126 3.91027 7.95564 3.911 8 C 3.911 10.2583 5.74171 12.089 8 12.089 C 10.2583 12.089 12.089 10.2583 12.089 8 C 12.089 5.74171 10.2583 3.911 8 3.911 M 8 10.667 C 6.55381 10.6938 5.35976 9.54308 5.333 8.0969 C 5.3324 8.0646 5.3324 8.0323 5.333 8 C 5.30624 6.55381 6.45692 5.35976 7.9031 5.333 C 7.9354 5.3324 7.9677 5.3324 8 5.333 C 9.44619 5.30624 10.6402 6.45692 10.667 7.9031 C 10.6676 7.9354 10.6676 7.9677 10.667 8 C 10.6938 9.44619 9.54308 10.6402 8.0969 10.667 C 8.0646 10.6676 8.0323 10.6676 8 10.667 M 12.267 2.756 C 11.7269 2.756 11.289 3.19387 11.289 3.734 C 11.289 4.27413 11.7269 4.712 12.267 4.712 C 12.8071 4.712 13.245 4.27413 13.245 3.734 C 13.2406 3.19568 12.8053 2.76035 12.267 2.756" id="Caminho_3" fill="#FFFFFF" fill-rule="evenodd"/></svg>