<svg version="1.1" width="16" height="20" viewBox="0 0 16 20" xmlns="http://www.w3.org/2000/svg" xmlns:xlink="http://www.w3.org/1999/xlink" overflow="hidden"><path d=" M 54.275 -511.754 C 54.0201 -511.67 53.7996 -511.506 53.647 -511.285 C 53.447 -510.985 53.416 -510.793 53.416 -510.023 L 53.416 -509.323 L 51.423 -509.311 L 49.423 -509.299 L 49.207 -509.199 C 48.9365 -509.073 48.7203 -508.854 48.598 -508.582 C 48.498 -508.367 48.498 -508.355 48.498 -507.445 C 48.498 -506.535 48.498 -506.523 48.598 -506.308 C 48.7758 -505.926 49.1303 -505.655 49.546 -505.585 L 49.712 -505.562 L 49.712 -499.812 C 49.712 -493.394 49.697 -493.788 49.99 -493.19 C 50.3254 -492.526 50.9383 -492.045 51.663 -491.877 C 52.063 -491.791 60.935 -491.791 61.332 -491.877 C 62.0568 -492.045 62.6696 -492.526 63.005 -493.19 C 63.298 -493.79 63.283 -493.39 63.283 -499.812 L 63.283 -505.562 L 63.449 -505.585 C 63.8647 -505.655 64.2192 -505.926 64.397 -506.308 C 64.497 -506.523 64.497 -506.535 64.497 -507.445 C 64.497 -508.355 64.497 -508.367 64.397 -508.582 C 64.2747 -508.854 64.0585 -509.073 63.788 -509.199 L 63.572 -509.299 L 61.579 -509.311 L 59.586 -509.323 L 59.574 -510.093 C 59.562 -510.827 59.559 -510.87 59.462 -511.081 C 59.3398 -511.353 59.1236 -511.572 58.853 -511.698 L 58.637 -511.798 L 56.555 -511.806 C 55.7955 -511.876 55.0305 -511.859 54.275 -511.754 Z M 58.065 -510.473 C 58.296 -510.301 58.331 -510.211 58.343 -509.75 L 58.358 -509.324 L 54.649 -509.324 L 54.649 -509.691 C 54.649 -510.091 54.684 -510.226 54.815 -510.375 C 54.992 -510.575 55.031 -510.575 56.546 -510.563 C 57.907 -510.555 57.965 -510.551 58.065 -510.473 Z M 63 -507.973 C 63.1813 -507.864 63.2845 -507.661 63.266 -507.45 C 63.2849 -507.239 63.1816 -507.035 63 -506.926 C 62.9 -506.844 62.888 -506.844 56.585 -506.832 C 52.232 -506.824 50.231 -506.832 50.131 -506.863 C 49.8049 -506.986 49.6401 -507.35 49.7629 -507.676 C 49.7856 -507.736 49.8173 -507.792 49.857 -507.843 C 50.057 -508.085 49.618 -508.074 56.546 -508.062 C 62.892 -508.055 62.9 -508.055 63 -507.973 Z M 62.044 -499.804 L 62.032 -494.03 L 61.932 -493.811 C 61.8098 -493.539 61.5936 -493.32 61.323 -493.194 L 61.107 -493.094 L 51.893 -493.094 L 51.677 -493.194 C 51.4064 -493.32 51.1902 -493.539 51.068 -493.811 L 50.968 -494.03 L 50.956 -499.804 L 50.948 -505.574 L 62.048 -505.574 Z" id="Caminho_292" fill="#DF322E" transform="matrix(1,0,0,1,-48.5,511.817)"/><path d=" M 160.563 -287.638 C 160.374 -287.544 160.233 -287.374 160.177 -287.17 C 160.164 -287.093 160.16 -285.12 160.164 -282.777 C 160.177 -278.556 160.177 -278.522 160.264 -278.406 C 160.382 -278.203 160.605 -278.086 160.839 -278.106 C 161.073 -278.086 161.296 -278.203 161.414 -278.406 C 161.504 -278.522 161.504 -278.548 161.504 -282.893 C 161.504 -287.238 161.504 -287.264 161.414 -287.38 C 161.356 -287.455 161.289 -287.522 161.214 -287.58 C 161.015 -287.692 160.778 -287.713 160.563 -287.638 Z" id="Caminho_293" fill="#DF322E" transform="matrix(1,0,0,1,-155.897,295.337)"/><path d=" M 240.563 -287.638 C 240.374 -287.544 240.233 -287.374 240.177 -287.17 C 240.164 -287.093 240.16 -285.12 240.164 -282.777 C 240.177 -278.556 240.177 -278.522 240.264 -278.406 C 240.382 -278.203 240.605 -278.086 240.839 -278.106 C 241.073 -278.086 241.296 -278.203 241.414 -278.406 C 241.504 -278.522 241.504 -278.548 241.504 -282.893 C 241.504 -287.238 241.504 -287.264 241.414 -287.38 C 241.356 -287.455 241.289 -287.522 241.214 -287.58 C 241.015 -287.692 240.778 -287.713 240.563 -287.638 Z" id="Caminho_294" fill="#DF322E" transform="matrix(1,0,0,1,-232.841,295.337)"/><path d=" M 320.882 -287.638 C 320.782 -287.581 320.695 -287.506 320.625 -287.415 L 320.501 -287.256 L 320.501 -282.889 C 320.501 -278.548 320.501 -278.522 320.591 -278.406 C 320.709 -278.203 320.932 -278.086 321.166 -278.106 C 321.4 -278.086 321.623 -278.203 321.741 -278.406 C 321.831 -278.522 321.831 -278.548 321.831 -282.893 C 321.831 -287.238 321.831 -287.264 321.741 -287.38 C 321.683 -287.455 321.616 -287.522 321.541 -287.58 C 321.34 -287.694 321.1 -287.715 320.882 -287.638 Z" id="Caminho_295" fill="#DF322E" transform="matrix(1,0,0,1,-310.109,295.337)"/></svg>