<?xml version="1.0" standalone="no"?>
<!DOCTYPE svg PUBLIC "-//W3C//DTD SVG 20010904//EN"
 "http://www.w3.org/TR/2001/REC-SVG-20010904/DTD/svg10.dtd">
<svg version="1.0" xmlns="http://www.w3.org/2000/svg"
 width="2728.000000pt" height="2250.000000pt" viewBox="0 0 2728.000000 2250.000000"
 preserveAspectRatio="xMidYMid meet">

<g transform="translate(0.000000,2250.000000) scale(0.100000,-0.100000)"
fill="#000000" stroke="none">
<path d="M8675 16025 c-115 -24 -221 -82 -301 -167 -68 -72 -70 -75 -178 -331
-59 -142 -106 -260 -104 -263 3 -2 56 -9 119 -15 422 -38 702 -121 1268 -379
348 -158 381 -158 749 -5 282 117 351 128 368 60 10 -39 -1 -65 -64 -161 -88
-133 -90 -142 -47 -253 75 -194 97 -352 70 -512 -12 -70 -15 -126 -11 -172 12
-131 -27 -192 -146 -228 -53 -16 -86 -20 -139 -17 -65 5 -87 14 -384 163 -173
86 -318 161 -320 165 -3 5 -21 14 -41 20 -78 26 -154 -20 -154 -91 0 -53 42
-92 221 -205 167 -105 256 -186 283 -259 11 -27 43 -104 72 -170 71 -162 74
-182 36 -242 -17 -27 -37 -65 -46 -86 -8 -20 -22 -40 -31 -43 -49 -19 -136 56
-201 172 -20 38 -50 88 -66 111 -16 24 -35 62 -44 85 -36 103 -83 116 -444
127 -274 9 -304 15 -400 82 -30 21 -137 101 -236 177 -100 76 -206 151 -235
167 l-54 30 -265 6 c-188 5 -291 12 -353 24 -48 10 -90 16 -92 13 -12 -11
-222 -596 -321 -893 -112 -337 -197 -642 -230 -825 -21 -116 -24 -315 -5 -390
36 -152 154 -320 248 -355 26 -10 70 -29 97 -42 48 -24 49 -24 118 -9 39 9
114 16 168 16 l98 0 13 32 c18 43 173 198 229 229 124 68 227 98 337 99 l73 0
20 39 c30 60 186 426 295 696 54 132 99 242 101 244 2 2 93 -28 203 -67 249
-89 460 -151 661 -193 146 -31 167 -33 360 -33 192 0 211 2 301 27 167 46 291
112 423 224 298 254 578 848 647 1368 14 111 7 333 -15 433 -107 491 -488 864
-1229 1204 -196 90 -637 265 -797 316 -246 80 -476 108 -625 77z"/>
<path d="M13610 15668 c-182 -19 -372 -99 -629 -265 -596 -386 -956 -853
-1071 -1388 -31 -143 -39 -427 -16 -585 61 -413 256 -836 587 -1271 50 -65 94
-119 98 -119 4 0 30 7 57 15 156 46 428 59 600 30 259 -45 494 -160 662 -323
68 -67 71 -69 88 -51 36 40 136 36 179 -7 54 -53 11 -154 -65 -154 l-32 0 18
-27 c9 -16 39 -53 65 -83 26 -30 61 -83 78 -117 17 -35 35 -63 39 -63 4 0 15
12 26 26 l18 26 -32 27 c-37 31 -51 83 -38 144 13 59 35 84 88 102 64 21 95
47 136 112 37 56 66 77 127 88 73 14 175 -50 193 -120 8 -31 7 -31 102 0 154
49 269 66 452 66 172 0 303 -15 398 -46 42 -14 77 -24 78 -22 1 1 -7 26 -18
55 -16 43 -32 63 -78 99 -62 47 -70 63 -70 131 0 77 33 118 121 151 48 18 62
30 103 87 33 46 59 71 89 84 49 23 59 24 110 9 123 -34 177 -194 98 -287 -17
-20 -39 -51 -47 -68 -16 -30 -15 -34 10 -89 44 -97 28 -179 -49 -242 l-36 -30
58 -36 58 -37 131 134 c208 211 325 376 399 558 130 323 58 627 -195 819 -36
28 -111 73 -168 101 -98 48 -105 50 -171 46 -54 -3 -84 -11 -144 -41 -138 -68
-253 -174 -561 -517 -314 -348 -477 -491 -614 -535 -129 -42 -255 16 -429 197
-148 155 -87 265 362 644 192 162 283 252 311 306 16 31 20 106 9 160 -21 97
-126 246 -234 333 -137 110 -259 160 -396 159 -77 0 -99 -4 -150 -28 -130 -59
-248 -171 -430 -406 -106 -137 -180 -217 -217 -236 -43 -22 -122 -18 -178 11
-70 35 -112 76 -168 159 -96 144 -147 314 -124 415 35 153 320 477 605 689 40
29 136 90 214 134 181 103 292 190 343 269 91 141 59 307 -100 518 -167 220
-382 316 -650 289z m-760 -765 c28 -16 50 -51 50 -77 0 -7 -9 -25 -20 -39 -54
-68 -191 -29 -190 53 1 67 93 103 160 63z m322 -76 c48 -29 75 -65 89 -119 17
-61 5 -106 -41 -162 -54 -66 -58 -85 -26 -155 14 -32 26 -67 26 -77 0 -69 -56
-155 -117 -180 -103 -44 -202 10 -239 129 -19 62 -33 79 -106 139 -50 41 -63
78 -48 144 13 57 40 85 110 113 56 23 69 34 109 90 25 35 62 72 81 82 48 26
116 24 162 -4z m-546 -61 c79 -79 9 -174 -112 -151 -84 15 -115 107 -53 159
24 20 41 26 81 26 44 0 54 -4 84 -34z m-70 -247 c25 -13 54 -59 54 -87 0 -51
-74 -99 -136 -87 -77 14 -118 96 -79 153 28 38 104 48 161 21z m207 -279 c34
-38 35 -73 2 -105 -44 -44 -143 -29 -174 26 -51 91 99 161 172 79z m-240 -551
c23 -25 28 -38 23 -63 -9 -45 -39 -66 -98 -66 -41 0 -54 5 -79 29 -16 16 -29
39 -29 51 0 86 121 119 183 49z m288 -54 c40 -21 87 -80 99 -125 15 -55 -1
-106 -50 -166 -46 -56 -51 -93 -20 -155 30 -57 28 -118 -3 -172 -30 -51 -57
-71 -115 -87 -94 -25 -185 37 -216 148 -14 50 -25 68 -58 94 -95 77 -105 95
-94 173 10 62 43 97 110 118 49 16 63 27 109 85 30 37 61 73 70 80 39 33 112
36 168 7z m-577 -35 c44 -16 66 -47 66 -89 0 -81 -104 -120 -180 -68 -107 72
-11 205 114 157z m-10 -291 c13 -13 27 -38 31 -55 8 -42 -31 -91 -82 -100
-116 -22 -198 94 -115 164 38 32 131 28 166 -9z m1642 -165 c35 -17 64 -58 64
-89 0 -9 -14 -30 -30 -47 -28 -27 -36 -30 -75 -25 -81 9 -120 55 -99 116 9 25
63 61 92 61 8 0 29 -7 48 -16z m-1486 -69 c64 -33 77 -90 31 -136 -22 -22 -39
-29 -68 -29 -105 0 -153 110 -70 161 38 23 68 24 107 4z m1808 -16 c113 -55
145 -205 61 -284 -17 -17 -37 -42 -45 -58 -14 -25 -12 -32 16 -96 33 -76 35
-89 20 -143 -22 -77 -93 -129 -176 -130 -82 0 -148 59 -178 159 -17 55 -25 67
-77 107 -69 54 -88 97 -70 163 16 60 43 87 110 112 53 19 65 29 112 93 75 100
136 121 227 77z m-532 -63 c51 -51 46 -98 -16 -140 -78 -52 -214 32 -181 113
16 38 58 60 115 61 42 0 53 -5 82 -34z m-85 -243 c50 -20 70 -58 58 -112 -15
-66 -82 -87 -157 -49 -86 42 -91 103 -13 155 40 27 57 28 112 6z m214 -274
c44 -39 45 -70 6 -110 -34 -33 -83 -39 -131 -14 -57 29 -65 81 -21 126 42 41
97 41 146 -2z m2033 -152 c46 -46 30 -106 -35 -133 -57 -24 -121 4 -144 63
-11 30 12 80 44 93 38 17 107 5 135 -23z m-268 -102 c76 -39 66 -151 -15 -171
-50 -12 -108 3 -137 36 -34 37 -35 68 -7 104 37 47 104 60 159 31z m-23 -289
c57 -66 4 -156 -92 -156 -103 0 -153 94 -85 162 29 29 34 30 92 26 51 -4 65
-9 85 -32z m-1122 -106 c34 -32 33 -74 -4 -111 -72 -72 -209 0 -172 90 16 38
46 51 104 47 33 -2 55 -10 72 -26z"/>
<path d="M17594 15201 c-294 -47 -527 -295 -599 -636 -24 -114 -22 -288 4
-388 40 -153 114 -253 242 -327 60 -36 651 -332 682 -343 15 -5 12 -11 -156
-367 -118 -252 -457 -1011 -457 -1026 0 -11 106 5 150 22 26 11 65 44 112 96
86 96 252 241 439 383 160 122 231 197 339 356 105 154 179 297 230 444 47
133 66 171 120 231 78 86 109 162 164 402 56 243 133 452 166 452 19 0 30 -41
30 -114 l0 -75 58 -11 c31 -6 67 -14 79 -17 20 -4 27 3 51 58 31 70 59 101 66
78 2 -8 7 -40 10 -73 8 -73 17 -90 57 -106 22 -10 37 -26 51 -59 10 -25 47
-84 82 -131 80 -107 88 -124 88 -171 -1 -58 -27 -101 -103 -173 -59 -55 -69
-70 -69 -98 0 -79 53 -97 150 -52 30 14 147 57 260 96 113 39 244 86 291 104
47 19 98 34 113 34 33 0 225 -95 233 -116 7 -18 -38 -69 -81 -91 -36 -19 -97
-11 -180 23 -76 31 -91 30 -135 -3 -19 -16 -67 -49 -105 -75 -66 -43 -234
-185 -235 -199 -1 -10 184 35 294 71 59 19 131 34 175 37 66 5 82 2 133 -20
53 -24 57 -28 57 -60 0 -45 -24 -71 -84 -91 l-49 -16 -45 30 c-25 17 -53 30
-62 30 -10 0 -55 -18 -101 -39 -171 -80 -331 -119 -438 -107 l-56 6 -91 -92
c-101 -103 -168 -190 -458 -603 -108 -154 -226 -317 -263 -363 -75 -93 -222
-238 -430 -425 -79 -71 -157 -146 -175 -167 -41 -47 -141 -208 -222 -355 -51
-92 -78 -126 -163 -212 -57 -57 -103 -107 -103 -113 0 -7 32 -10 91 -7 l92 3
14 54 c7 30 34 97 58 149 39 79 58 106 133 180 89 87 166 135 285 175 61 20
189 35 254 29 41 -4 51 -2 56 12 16 39 87 135 153 205 l71 75 140 320 c77 176
189 436 248 578 62 147 113 257 121 257 7 0 84 -27 171 -61 265 -102 533 -199
592 -215 394 -102 878 438 811 906 -37 261 -177 426 -560 658 -554 335 -1491
748 -2135 942 -292 87 -524 123 -661 101z"/>
<path d="M17196 11833 c-27 -65 -98 -237 -157 -383 l-108 -265 50 -11 c27 -7
61 -15 74 -18 24 -6 29 1 95 136 68 138 79 172 125 383 10 44 37 118 61 166
l43 86 -45 7 c-24 3 -54 8 -67 11 -21 6 -26 -3 -71 -112z"/>
<path d="M17484 11261 c-32 -20 -79 -60 -104 -88 -49 -54 -105 -132 -99 -136
2 -1 23 -19 46 -41 l41 -38 37 40 c96 107 155 204 155 255 0 20 -4 38 -8 41
-5 3 -35 -12 -68 -33z"/>
<path d="M3600 9214 c-178 -38 -348 -170 -429 -334 -125 -255 -80 -533 118
-731 122 -121 282 -188 453 -189 l67 0 4 -1652 c3 -1793 1 -1716 58 -2038 179
-999 765 -1890 1620 -2462 65 -43 89 -65 86 -77 -2 -9 -102 -244 -221 -523
-119 -279 -223 -533 -231 -565 -8 -31 -15 -87 -15 -123 0 -271 232 -500 507
-500 170 0 351 107 432 255 16 30 125 280 242 555 191 447 216 501 234 497 11
-3 74 -18 140 -35 170 -44 381 -78 590 -97 163 -14 802 -15 6685 -12 6088 3
6513 4 6630 20 178 25 337 54 470 87 64 16 122 30 130 32 9 2 79 -152 229
-503 119 -279 230 -531 245 -559 93 -171 310 -279 504 -251 108 16 208 66 288
147 108 108 149 215 142 378 l-4 101 -228 535 c-126 294 -231 542 -233 551 -3
10 25 35 94 79 409 267 784 639 1060 1055 365 548 567 1136 622 1808 7 83 11
689 11 1713 l0 1584 68 0 c405 1 709 372 627 765 -50 239 -251 440 -490 490
-103 22 -20404 21 -20505 -1z m20550 -235 c97 -47 162 -112 209 -209 34 -71
36 -81 36 -175 0 -94 -2 -104 -36 -175 -47 -97 -112 -162 -209 -209 l-75 -36
-10220 0 -10220 0 -75 36 c-97 47 -162 112 -209 209 -34 71 -36 81 -36 175 0
94 2 104 36 175 57 119 167 211 287 239 21 5 4356 8 10237 8 l10200 -2 75 -36z
m-460 -2607 c0 -1699 -1 -1736 -51 -2027 -162 -951 -697 -1785 -1500 -2338
-54 -38 -142 -86 -200 -111 -57 -24 -103 -47 -102 -52 1 -5 121 -290 267 -632
188 -442 268 -639 272 -676 13 -111 -53 -234 -155 -290 -129 -70 -299 -31
-380 88 -16 23 -144 313 -286 646 -141 333 -261 613 -266 622 -8 15 -18 13
-102 -22 -50 -22 -91 -44 -90 -49 2 -6 -14 -15 -35 -20 -151 -41 -361 -80
-552 -103 -85 -11 -1376 -13 -6660 -13 -6282 0 -6561 1 -6695 18 -149 20 -388
65 -495 95 -48 13 -64 22 -62 33 3 19 -174 97 -188 83 -5 -5 -122 -274 -260
-599 -138 -324 -260 -608 -271 -630 -27 -52 -84 -111 -134 -138 -60 -32 -202
-31 -265 1 -118 62 -183 188 -160 311 5 28 127 326 271 663 144 337 263 618
266 624 3 10 -134 76 -177 86 -36 8 -264 171 -405 291 -103 86 -295 278 -390
387 -423 489 -709 1096 -814 1730 -50 302 -51 333 -51 2027 l0 1583 9835 0
9835 0 0 -1588z"/>
<path d="M20328 7504 c-56 -30 -58 -44 -58 -389 l0 -315 -320 0 c-352 0 -365
-2 -395 -60 -19 -37 -19 -53 0 -90 30 -58 43 -60 394 -60 l320 0 3 -331 3
-331 33 -29 c22 -20 43 -29 67 -29 24 0 45 9 67 29 l33 29 3 331 3 330 325 3
326 3 29 33 c20 22 29 43 29 67 0 24 -9 45 -29 67 l-29 33 -326 3 -326 3 0
315 c0 346 -2 359 -60 389 -36 19 -57 18 -92 -1z"/>
<path d="M8132 5919 c-235 -27 -443 -114 -538 -223 -142 -162 -144 -430 -4
-598 66 -80 224 -160 380 -192 101 -20 208 -33 440 -51 392 -31 505 -54 584
-119 103 -84 144 -262 87 -375 -55 -107 -243 -200 -470 -231 -119 -16 -351
-14 -447 5 -253 48 -467 176 -578 345 -50 75 -85 97 -129 81 -37 -14 -61 -54
-52 -88 19 -76 147 -228 260 -308 214 -152 477 -223 785 -212 429 16 697 140
799 372 19 42 25 189 12 260 -24 130 -100 242 -215 317 -113 73 -244 99 -616
123 -275 18 -368 29 -470 55 -206 52 -292 133 -306 291 -13 130 49 230 179
294 267 131 807 135 1062 8 28 -14 80 -56 117 -94 63 -65 81 -75 128 -70 25 3
50 41 50 75 0 72 -102 177 -235 242 -96 46 -208 77 -345 94 -98 12 -372 11
-478 -1z"/>
<path d="M9476 5909 c-20 -16 -26 -29 -26 -59 0 -48 -39 -9 507 -503 l423
-382 0 -481 c0 -472 0 -482 21 -508 28 -35 80 -36 114 -1 l25 24 0 483 0 483
430 389 c536 485 500 450 500 489 0 64 -60 104 -113 75 -14 -7 -219 -188 -456
-403 -238 -214 -435 -391 -440 -393 -4 -1 -203 174 -441 390 -238 216 -442
398 -454 405 -31 18 -60 16 -90 -8z"/>
<path d="M12345 5915 c-410 -57 -625 -235 -625 -514 0 -209 107 -359 318 -444
130 -53 285 -78 720 -112 326 -27 426 -55 502 -142 47 -53 71 -114 77 -199 8
-98 -11 -148 -81 -211 -124 -113 -331 -173 -611 -174 -165 -2 -266 12 -389 52
-194 64 -339 168 -447 323 -44 64 -79 83 -120 66 -75 -31 -66 -100 28 -222
147 -192 423 -338 716 -377 158 -22 389 -10 569 29 278 60 470 219 497 411 10
73 -1 190 -25 261 -23 71 -87 160 -147 206 -139 106 -272 136 -727 162 -207
12 -304 24 -407 51 -215 54 -303 146 -304 314 -1 128 51 205 185 272 149 75
410 112 661 94 291 -21 433 -77 535 -209 46 -60 119 -59 148 1 21 44 -1 90
-77 166 -105 105 -246 164 -466 196 -122 18 -405 18 -530 0z"/>
<path d="M13718 5916 c-41 -31 -44 -98 -6 -133 19 -17 51 -18 459 -21 l439 -3
2 -880 3 -881 28 -24 c48 -41 105 -27 127 30 7 18 10 318 10 891 l0 864 441 3
441 3 24 28 c32 37 31 77 -2 111 l-27 26 -961 0 c-773 -1 -964 -3 -978 -14z"/>
<path d="M15936 5904 l-26 -27 0 -937 0 -937 26 -27 27 -26 821 0 c658 1 824
3 838 14 28 21 39 61 26 97 -21 60 -2 59 -828 59 l-750 0 0 425 0 425 563 0
c552 0 564 0 585 20 47 44 36 111 -23 135 -29 13 -126 15 -580 15 l-545 0 0
310 0 310 769 2 c728 3 770 4 789 21 26 24 35 59 22 93 -22 56 20 53 -866 54
l-821 0 -27 -26z"/>
<path d="M17895 5905 l-25 -24 0 -941 0 -941 25 -24 c29 -30 74 -32 106 -6
l24 19 5 823 5 822 255 -269 c392 -413 401 -422 439 -429 32 -7 37 -3 135 96
56 57 207 216 336 352 l235 249 5 -819 c3 -450 6 -819 8 -820 1 -1 12 -11 24
-23 31 -28 79 -26 109 6 l24 26 0 940 0 940 -28 24 c-41 35 -71 31 -125 -20
-26 -24 -196 -202 -377 -395 -182 -193 -333 -351 -336 -351 -4 0 -152 154
-330 343 -439 464 -422 447 -459 447 -19 0 -40 -9 -55 -25z"/>
</g>
</svg>
