<?xml version="1.0" standalone="no"?>
<!DOCTYPE svg PUBLIC "-//W3C//DTD SVG 20010904//EN"
 "http://www.w3.org/TR/2001/REC-SVG-20010904/DTD/svg10.dtd">
<svg version="1.0" xmlns="http://www.w3.org/2000/svg"
 width="882.000000pt" height="539.000000pt" viewBox="0 0 882.000000 539.000000"
 preserveAspectRatio="xMidYMid meet">

<g transform="translate(0.000000,539.000000) scale(0.100000,-0.100000)"
fill="#000000" stroke="none">
<path d="M1020 5160 c-131 -16 -201 -44 -267 -109 -51 -49 -79 -102 -101 -190
-15 -60 -17 -252 -20 -2041 -3 -2005 -1 -2130 34 -2251 32 -111 113 -194 226
-232 55 -18 88 -21 263 -21 181 -1 207 1 272 22 89 28 164 86 205 158 55 99
60 148 65 727 l5 527 503 0 c289 0 537 4 582 10 357 48 703 206 978 448 384
339 570 831 527 1390 -26 335 -100 551 -279 821 -93 140 -273 325 -413 424
-114 81 -338 194 -470 236 -131 42 -268 69 -407 81 -137 11 -1606 11 -1703 0z
m1718 -1065 c226 -45 399 -196 477 -416 25 -69 36 -211 25 -311 -19 -172 -73
-284 -187 -389 -107 -99 -225 -151 -383 -169 -47 -5 -284 -10 -527 -10 l-443
0 0 655 0 655 480 0 c392 0 495 -3 558 -15z"/>
<path d="M6893 4400 c-84 -18 -139 -59 -169 -125 -4 -11 -11 -144 -14 -295
l-5 -275 -105 -5 c-97 -5 -110 -8 -147 -35 -66 -47 -87 -100 -91 -229 -5 -134
9 -205 49 -251 38 -43 81 -57 199 -64 l95 -6 6 -425 c5 -397 6 -430 27 -505
58 -212 184 -349 379 -414 108 -36 253 -54 399 -49 120 4 135 7 177 31 35 21
52 40 74 84 26 54 28 67 28 178 0 106 -3 126 -23 168 -38 75 -83 96 -233 107
-140 11 -156 15 -186 43 -38 35 -44 99 -41 450 l3 328 190 3 c215 3 252 11
306 65 48 48 69 118 69 232 0 166 -33 238 -130 283 -41 19 -61 21 -242 19
l-196 -2 -4 262 c-3 242 -5 266 -24 308 -23 50 -68 89 -124 108 -45 16 -213
23 -267 11z"/>
<path d="M5275 3799 c-455 -35 -812 -330 -926 -765 -20 -77 -24 -113 -23 -264
0 -159 2 -185 27 -280 101 -382 362 -644 732 -734 235 -57 585 -42 820 35 143
48 236 112 277 193 41 80 9 205 -79 314 -69 85 -128 93 -277 37 -147 -55 -182
-64 -295 -75 -207 -22 -360 21 -477 132 -50 47 -94 128 -94 173 0 13 65 15
473 15 259 1 502 5 539 9 178 23 289 139 319 331 44 287 -124 605 -404 764
-170 96 -368 133 -612 115z m178 -539 c93 -14 159 -44 205 -94 48 -52 66 -103
59 -164 -10 -90 -34 -94 -462 -90 -330 3 -310 -3 -280 91 42 135 168 232 335
257 66 11 69 11 143 0z"/>
<path d="M8197 1902 c-14 -15 -17 -42 -17 -160 l0 -142 -148 0 c-132 0 -151
-2 -165 -18 -22 -24 -21 -38 3 -62 18 -18 33 -20 165 -20 l145 0 0 -148 c0
-151 5 -172 41 -185 9 -3 26 1 38 9 20 14 21 24 21 170 l0 154 148 0 c132 0
151 2 165 18 21 23 22 46 1 66 -13 13 -42 16 -165 16 l-149 0 0 148 c0 102 -4
152 -12 160 -18 18 -53 15 -71 -6z"/>
<path d="M1974 1564 c-23 -8 -60 -33 -82 -56 -71 -72 -72 -76 -72 -567 0 -417
1 -438 21 -481 25 -55 62 -95 114 -123 l40 -22 2820 0 c2732 0 2821 1 2855 19
49 26 88 64 113 111 21 39 22 51 25 480 2 319 0 452 -9 483 -7 25 -30 64 -56
92 -79 88 219 80 -2932 79 -2431 0 -2801 -2 -2837 -15z m5666 -95 c21 -12 47
-39 59 -60 21 -37 22 -44 19 -473 -3 -421 -4 -435 -24 -462 -11 -15 -33 -37
-48 -48 l-27 -21 -2804 0 -2804 0 -27 21 c-15 11 -37 33 -48 48 -20 27 -21 41
-24 459 -3 490 -4 487 72 532 l41 25 2789 0 2788 0 38 -21z"/>
<path d="M2465 1365 c-160 -35 -235 -108 -235 -231 0 -80 30 -138 89 -175 69
-44 129 -58 311 -75 192 -17 220 -25 255 -65 38 -46 35 -98 -10 -138 -64 -56
-213 -82 -331 -57 -99 20 -149 48 -221 122 -34 35 -66 64 -71 64 -19 0 -62
-42 -62 -60 0 -21 57 -100 98 -136 71 -62 227 -114 342 -113 80 0 198 23 255
50 108 51 152 129 134 240 -19 121 -106 182 -279 199 -251 25 -297 31 -336 50
-92 45 -84 146 16 189 146 63 403 40 461 -40 15 -22 28 -29 53 -29 92 0 68
103 -39 165 -86 51 -293 70 -430 40z"/>
<path d="M3067 1362 c-10 -10 -17 -29 -17 -42 0 -25 11 -36 247 -248 l142
-127 1 -202 c0 -189 1 -204 20 -223 25 -25 52 -26 73 -2 15 16 17 47 17 219
l0 201 186 167 c102 92 192 177 200 190 25 38 -4 85 -52 85 -7 0 -95 -73 -194
-162 -100 -90 -185 -164 -189 -166 -5 -1 -90 72 -190 163 -189 170 -211 184
-244 147z"/>
<path d="M4233 1360 c-155 -41 -216 -104 -217 -226 0 -75 25 -127 83 -171 58
-45 121 -61 306 -79 88 -8 175 -17 193 -20 89 -17 126 -128 61 -185 -72 -63
-273 -84 -391 -41 -75 27 -141 73 -168 117 -21 34 -47 55 -69 55 -19 0 -51
-39 -51 -62 1 -37 66 -116 131 -158 99 -64 175 -85 309 -84 190 0 316 53 368
154 43 82 13 204 -64 268 -50 41 -125 60 -294 71 -228 16 -300 47 -300 129 0
78 60 116 209 133 147 17 271 -11 330 -75 43 -46 104 -29 104 30 0 31 -52 88
-107 116 -95 49 -302 62 -433 28z"/>
<path d="M4856 1367 c-10 -8 -18 -26 -18 -40 0 -54 9 -56 206 -59 l181 -3 3
-364 c2 -322 4 -367 19 -383 20 -23 45 -23 72 -1 21 18 21 25 24 383 l2 365
179 3 c112 1 185 7 193 13 18 16 16 64 -3 83 -13 14 -66 16 -428 16 -327 0
-416 -3 -430 -13z"/>
<path d="M5794 1359 c-18 -20 -19 -42 -19 -421 l0 -400 24 -19 c22 -18 43 -19
372 -19 336 0 350 1 369 20 25 25 26 52 2 73 -16 15 -58 17 -333 19 l-314 3
-3 158 -3 157 226 0 c137 0 234 4 246 10 28 15 26 74 -3 94 -19 13 -60 16
-246 16 l-223 0 3 108 3 107 314 3 c275 2 317 4 333 19 24 21 23 48 -2 73 -19
19 -33 20 -373 20 -347 0 -354 0 -373 -21z"/>
<path d="M6624 1366 c-18 -14 -19 -30 -19 -426 0 -396 1 -412 19 -426 27 -19
52 -18 76 6 19 19 20 33 20 338 l0 317 121 -127 c98 -104 126 -128 148 -128
22 0 49 22 130 104 56 57 109 113 117 125 8 11 19 21 25 21 5 0 9 -126 9 -318
0 -296 1 -320 18 -335 25 -22 48 -21 72 3 19 19 20 33 20 418 0 344 -2 401
-16 420 -31 45 -54 31 -217 -140 l-154 -161 -99 104 c-224 236 -225 237 -270
205z"/>
</g>
</svg>
