<svg version="1.1" width="16" height="16" viewBox="0 0 16 16" xmlns="http://www.w3.org/2000/svg" xmlns:xlink="http://www.w3.org/1999/xlink" id="Search" overflow="hidden"><rect x="0" y="0" width="16" height="16" id="Retângulo_176" fill="none"/><path d=" M 15.9 14.5 L 12.6 11.2 C 13.5189 9.99366 14.0113 8.51641 14 7 C 14.0238 3.15783 10.9284 0.0238221 7.08627 -1.77636e-15 C 7.05751 -0.000178289 7.02876 -0.000178289 7 -1.77636e-15 C 3.15783 -0.0238221 0.0238221 3.07156 -8.88178e-16 6.91373 C -0.000178289 6.94249 -0.000178289 6.97124 -8.88178e-16 7 C -0.0238221 10.8422 3.07156 13.9762 6.91373 14 C 6.94249 14.0002 6.97124 14.0002 7 14 C 8.51641 14.0113 9.99366 13.5189 11.2 12.6 L 14.5 15.9 Z M 2 7 C 1.9728 4.26577 4.16728 2.0272 6.90151 2 C 6.93434 1.99967 6.96717 1.99967 7 2 C 9.73423 1.9728 11.9728 4.16728 12 6.90151 C 12.0003 6.93434 12.0003 6.96717 12 7 C 12.0272 9.73423 9.83272 11.9728 7.09849 12 C 7.06566 12.0003 7.03283 12.0003 7 12 C 4.26577 12.0272 2.0272 9.83272 2 7.09849 C 1.99967 7.06566 1.99967 7.03283 2 7 Z" id="Caminho_99" fill="#DF322E"/></svg>