<svg version="1.1" width="16.19" height="16" viewBox="0 0 16.19 16" xmlns="http://www.w3.org/2000/svg" xmlns:xlink="http://www.w3.org/1999/xlink" overflow="hidden"><path d=" M 9.4 11.429 L 11.13 9.857 C 11.246 9.74684 11.4052 9.69438 11.564 9.714 L 11.853 9.857 L 15.9 11.714 C 16.189 11.857 16.189 12 16.189 12.285 C 16.1692 13.2635 15.7518 14.1918 15.033 14.856 C 14.2178 15.631 13.1239 16.0435 12 16 C 10.5898 15.9925 9.2016 15.6498 7.95 15 C 6.48073 14.2291 5.11909 13.2685 3.9 12.143 C 3.09712 11.1537 2.37323 10.1028 1.735 9 C 1.16146 7.99692 0.677581 6.94517 0.288999 5.857 C 0.0503614 4.97319 -0.0471739 4.05724 -1.06835e-06 3.143 C 0.0957487 2.33775 0.450971 1.58553 1.012 1 C 1.78771 0.365375 2.75585 0.012813 3.758 -1.19209e-07 C 3.98377 0.00397425 4.19588 0.108927 4.336 0.286 L 6.504 4.286 C 6.51962 4.39467 6.57058 4.49517 6.649 4.572 C 6.66723 4.72993 6.61236 4.88754 6.5 5 L 4.626 6.714 C 4.47868 6.9292 4.47868 7.2128 4.626 7.428 C 5.12213 8.24877 5.70334 9.015 6.36 9.714 C 7.06579 10.4101 7.84081 11.0323 8.673 11.571 C 8.962 11.714 9.251 11.714 9.4 11.429 Z" id="Caminho_110" fill="#FFFFFF"/></svg>