<svg version="1.1" width="16.193" height="16.007" viewBox="0 0 16.193 16.007" xmlns="http://www.w3.org/2000/svg" xmlns:xlink="http://www.w3.org/1999/xlink" overflow="hidden"><path d=" M 700.411 475.553 L 700.983 473.883 C 701.248 473.108 701.518 472.335 701.772 471.557 C 701.803 471.448 701.793 471.331 701.742 471.229 C 699.602 467.506 700.885 462.752 704.609 460.612 C 705.364 460.178 706.186 459.874 707.042 459.713 C 711.345 458.814 715.562 461.574 716.461 465.878 C 716.473 465.935 716.484 465.992 716.495 466.049 C 717.193 470.305 714.313 474.322 710.059 475.027 C 708.334 475.339 706.554 475.075 704.994 474.274 C 704.871 474.208 704.725 474.198 704.594 474.247 C 703.284 474.663 701.971 475.072 700.658 475.483 C 700.584 475.5 700.514 475.523 700.411 475.553 Z M 702.396 473.632 C 702.539 473.592 702.632 473.569 702.723 473.54 C 703.411 473.324 704.098 473.101 704.789 472.895 C 704.899 472.867 705.015 472.88 705.116 472.933 C 706.646 473.866 708.483 474.154 710.225 473.733 C 713.658 472.946 715.864 469.597 715.231 466.133 C 714.503 462.567 711.058 460.238 707.477 460.89 C 703.914 461.458 701.487 464.808 702.055 468.371 C 702.205 469.313 702.56 470.21 703.094 471 C 703.194 471.128 703.215 471.301 703.15 471.45 C 702.9 472.158 702.658 472.87 702.4 473.632 Z" id="Caminho_290" fill="#FFFFFF" transform="matrix(1,0,0,1,-700.411,-459.546)"/><path d=" M 1024.28 779.788 C 1024.3 779.267 1024.51 778.771 1024.86 778.388 C 1025.15 778.096 1025.55 777.959 1025.95 778.023 C 1026.08 778.058 1026.18 778.147 1026.24 778.266 C 1026.48 778.786 1026.7 779.315 1026.92 779.847 C 1026.95 779.953 1026.94 780.067 1026.89 780.164 C 1026.76 780.374 1026.61 780.571 1026.44 780.752 C 1026.29 780.873 1026.27 781.094 1026.39 781.246 C 1027 782.262 1027.94 783.044 1029.05 783.468 C 1029.19 783.54 1029.36 783.497 1029.45 783.368 C 1029.64 783.137 1029.84 782.914 1030.02 782.675 C 1030.1 782.522 1030.29 782.462 1030.44 782.54 C 1030.99 782.789 1031.54 783.04 1032.07 783.313 C 1032.16 783.394 1032.21 783.511 1032.2 783.632 C 1032.17 784.416 1031.6 785.071 1030.82 785.199 C 1030.39 785.276 1029.95 785.249 1029.53 785.121 C 1027.75 784.647 1026.19 783.528 1025.18 781.98 C 1024.79 781.489 1024.5 780.922 1024.35 780.314 C 1024.31 780.144 1024.3 779.965 1024.28 779.788 Z" id="Caminho_291" fill="#FFFFFF" transform="matrix(1,0,0,1,-1019.93,-773.789)"/></svg>